<?xml version="1.0" encoding="UTF-8"?>
<svg width="150px" height="19px" viewBox="0 0 150 19" version="1.1" xmlns="http://www.w3.org/2000/svg" xmlns:xlink="http://www.w3.org/1999/xlink">
    <!-- Generator: Sketch 55.1 (78136) - https://sketchapp.com -->
    <title>组 153</title>
    <desc>Created with Sketch.</desc>
    <g id="页面1" stroke="none" stroke-width="1" fill="none" fill-rule="evenodd">
        <g id="登录" transform="translate(-976.000000, -232.000000)" fill="#FFFFFF" fill-rule="nonzero">
            <g id="组-153" transform="translate(976.000000, 232.000000)">
                <g id="组_150">
                    <g id="组_146">
                        <path d="M7.91990086,1.83304762 C9.96938246,1.58839327 12.03936,2.0650176 13.7864612,3.18385714 C13.9899308,3.31948048 14.2507245,3.32786115 14.4621767,3.20557143 L19.3568966,0.400809524 C19.4212863,0.364194972 19.5020635,0.378734147 19.5502459,0.435610666 C19.5984284,0.492487185 19.6007458,0.576036477 19.5557931,0.635595238 L16.5936552,4.54145238 C16.1368027,5.14398925 16.0285982,5.94851017 16.3095172,6.65407143 L16.3095172,6.65407143 C16.3663822,6.79203113 16.321773,6.95172527 16.2021324,7.03849277 C16.0824919,7.12526028 15.9198021,7.11590657 15.8105,7.01597619 L13.8934569,5.28290476 C13.8934569,5.28290476 14.7849397,7.67328571 15.2426681,8.19895238 C15.7003966,8.72461905 16.2278276,8.82685714 16.6265086,9.59454762 C17.0251897,10.3622381 16.274444,10.911881 15.3478879,11.282381 C14.4213319,11.652881 13.6395086,12.182619 13.0650172,11.5253095 C12.4905259,10.868 13.2954353,10.0994048 12.6974138,9.11909524 C12.0993922,8.13878571 10.0114224,8.5097381 9.34281034,7.3267619 C8.81493534,6.38264286 9.80053879,5.40233333 9.44847414,5.09154762 C9.09640948,4.7807619 8.32257759,5.76107143 8.11125,6.35821429 C7.96665628,6.91219892 7.85706801,7.4750597 7.78315948,8.04333333 C7.68593103,8.4097619 4.59282328,10.4092857 3.83186638,12.7517143 L5.67299138,12.7517143 C5.67299138,12.7517143 5.82571552,15.7876429 10.1885647,15.7876429 C13.9538362,15.7876429 15.6191509,14.4608095 15.6191509,14.4608095 C15.6191509,14.4608095 13.5902284,18.6557381 8.85178448,18.6557381 C4.11334052,18.6557381 1.60315948,15.9229048 0.633982759,12.7838333 C0.347866847,11.5007234 0.374695232,10.1657187 0.71212069,8.89561905 C1.39344185,8.44082165 2.11614714,8.05391021 2.87023707,7.7402381 L2.82317672,7.4457381 C2.16936754,7.53768312 1.53748573,7.75030996 0.958521552,8.07319048 C1.15576416,7.10396522 1.70445866,6.24617992 2.49508621,5.67104762 C3.8380819,4.67309524 5.04611207,5.0137381 5.12247414,4.57764286 C5.19883621,4.14154762 3.75594828,4.25464286 3.75594828,4.25464286 C4.43935216,3.59798435 5.25333448,3.09873294 6.1427069,2.7907381 C7.09907357,2.56595323 8.09202626,2.5562276 9.0524569,2.7622381 C9.11755161,2.77178694 9.17996788,2.73229644 9.2004362,2.66861224 C9.22090451,2.60492804 9.19350595,2.53546602 9.13547845,2.50392857 L7.91990086,1.83304762 Z" id="路径_26"></path>
                        <path d="M11.8094828,15.2339286 C11.8094828,15.2339286 12.9065216,14.5173571 13.891681,13.7768095 C14.8768405,13.0362619 15.5099353,12.5345714 15.8895259,12.849881 C16.2939784,13.1846429 15.6959569,13.9016667 14.7867155,14.3377619 C13.841033,14.7788336 12.8385793,15.0805788 11.8094828,15.2339286 Z" id="路径_27"></path>
                    </g>
                    <g id="组_149" transform="translate(23.530172, 3.166667)">
                        <path d="M0.247732759,4.37995238 C0.202560663,3.56390202 0.530364612,2.7724475 1.13566379,2.23611905 C1.86553486,1.68526321 2.76346081,1.41597278 3.66981897,1.47611905 C4.52539232,1.45466606 5.37959654,1.55763903 6.20663793,1.78192857 C6.29065013,1.80831941 6.34769296,1.88778019 6.34693103,1.97735714 L6.34693103,3.29197619 C6.34727171,3.35729056 6.31676717,3.4187871 6.26495362,3.457241 C6.21314006,3.49569491 6.14633969,3.50641411 6.08543534,3.48604762 C5.35819489,3.26232557 4.6011726,3.15548738 3.84163362,3.16938095 C2.65624569,3.16938095 2.06340374,3.61753968 2.06310776,4.51385714 L2.06310776,5.27385714 C2.04481811,5.61895128 2.12814862,5.96174212 2.30240517,6.2582381 C2.52985257,6.55745765 2.82061599,6.80053913 3.1530431,6.96938095 L5.37287069,8.23604762 C6.34778811,8.71070033 6.9555554,9.72729022 6.92231034,10.8277381 L6.92231034,11.918881 C6.96665521,12.7682501 6.60221518,13.5863974 5.94558621,14.1115714 C5.13997831,14.671133 4.17456437,14.94169 3.20143534,14.880619 C2.28555247,14.9076881 1.37130532,14.7855141 0.49324569,14.5187143 C0.412984317,14.4900921 0.359458392,14.4126445 0.360056034,14.326 L0.360056034,13.0027857 C0.35971387,12.9378524 0.3897931,12.8766484 0.441025671,12.838032 C0.492258243,12.7994156 0.558496824,12.7880202 0.619331897,12.8073571 C1.3941522,13.0602059 2.20316546,13.1873693 3.01674569,13.1841905 C4.40783764,13.1841905 5.10338362,12.7036111 5.10338362,11.7424524 L5.10338362,11.0833333 C5.12101624,10.7673163 5.04788865,10.4529124 4.89294397,10.1785714 C4.68431119,9.90736965 4.41563864,9.69034167 4.10890086,9.5452381 L1.94767672,8.33692857 C0.88707303,7.83542778 0.218783528,6.74134971 0.245512931,5.5502619 L0.247732759,4.37995238 Z" id="路径_28"></path>
                        <path d="M14.0364138,4.30169048 C14.8129282,3.82129087 15.7004762,3.55906366 16.60875,3.54169048 C17.3159239,3.4931643 18.0143469,3.72347448 18.5595345,4.18497619 C19.0402957,4.68731849 19.2873322,5.37514226 19.2383578,6.07502381 L19.2383578,14.5797857 C19.2383578,14.6927148 19.1485137,14.7842619 19.0376853,14.7842619 L17.6218793,14.7842619 C17.5111523,14.7840131 17.4214511,14.6926116 17.4212069,14.5797857 L17.4212069,6.38535714 C17.4634998,6.0656349 17.3555463,5.74428735 17.129841,5.51804189 C16.9041357,5.29179644 16.5870395,5.18707702 16.274,5.23540476 C15.656387,5.23718279 15.0522897,5.41980582 14.5336552,5.76152381 C14.6057691,5.95419412 14.6382585,6.15990879 14.6291078,6.36590476 L14.6291078,14.5797857 C14.629108,14.6925384 14.5395342,14.7840125 14.4288793,14.7842619 L12.9939828,14.7842619 C12.8831544,14.7842619 12.7933103,14.6927148 12.7933103,14.5797857 L12.7933103,6.38535714 C12.7935581,5.75173992 12.290573,5.23739957 11.6687457,5.23540476 C11.0875629,5.24294767 10.5162944,5.38986672 10.0012112,5.6642619 L10.0012112,14.5797857 C10.000967,14.6926116 9.91126581,14.7840131 9.80053879,14.7842619 L8.40426724,14.7842619 C8.29343893,14.7842619 8.20359483,14.6927148 8.20359483,14.5797857 L8.20359483,3.7832619 C8.20359483,3.72907295 8.22475107,3.67711003 8.26239726,3.63883511 C8.30004346,3.60056019 8.35108647,3.57911794 8.40426724,3.5792381 L9.72284483,3.5792381 C9.83349999,3.57923782 9.92327243,3.67050953 9.92351724,3.7832619 L9.92351724,4.08590476 C10.6556811,3.74118828 11.4501529,3.5552503 12.256556,3.53988095 C12.9314335,3.51187198 13.583605,3.79101251 14.0364138,4.30169048 L14.0364138,4.30169048 Z" id="路径_29"></path>
                        <path d="M20.9596121,4.00402381 C20.9589453,3.91437592 21.015913,3.8348362 21.0999052,3.80814286 C21.9576361,3.57171695 22.8442997,3.46232542 23.7326207,3.48333333 C25.9130833,3.48333333 27.0031667,4.49018254 27.0028707,6.50388095 L27.0028707,14.5815952 C27.0028707,14.6945243 26.9130266,14.7860714 26.8021983,14.7860714 L25.4836207,14.7860714 C25.3727924,14.7860714 25.2829483,14.6945243 25.2829483,14.5815952 L25.2829483,13.9871667 C24.6906192,14.5727405 23.8876175,14.8836651 23.0631207,14.8466905 C21.3038333,14.8466905 20.4240417,13.9437381 20.4237457,12.1378333 L20.4237457,11.4904762 C20.3943057,10.8534894 20.5913501,10.2270577 20.9787026,9.72619048 C21.4582944,9.21230669 22.0776174,8.85613295 22.7572284,8.70335714 L25.2625259,8.00171429 L25.2625259,6.50116667 C25.2976598,6.11306834 25.1568811,5.72987622 24.8802716,5.46069048 C24.6251394,5.24596032 24.0863132,5.13874603 23.2637931,5.13904762 C22.5702146,5.13439216 21.8799183,5.23642205 21.2162241,5.44169048 C21.1555876,5.46002356 21.0900128,5.44801621 21.0394341,5.40931859 C20.9888555,5.37062098 20.959248,5.30980455 20.9596121,5.24535714 L20.9596121,4.00402381 Z M22.2027155,11.5705476 L22.2027155,12.1550238 C22.1751078,12.5005546 22.2814073,12.8433609 22.4988405,13.11 C22.8348942,13.3608931 23.2519497,13.4723079 23.6655819,13.4216905 C24.2517971,13.4200362 24.8183221,13.2059676 25.2638578,12.8177619 L25.2638578,9.56333333 L23.4471509,10.07 C23.0707272,10.1439794 22.7244905,10.3306167 22.4526681,10.6060714 C22.26651,10.8903413 22.1785651,11.2296886 22.2027155,11.5705476 L22.2027155,11.5705476 Z" id="路径_30"></path>
                        <path d="M35.831125,1.77830952 L35.831125,3.58104762 L37.8489483,3.58104762 C37.9596034,3.58104734 38.0493759,3.67231905 38.0496207,3.78507143 L38.0496207,4.95492857 C38.0493765,5.06775444 37.9596753,5.15915597 37.8489483,5.15940476 L35.831125,5.15940476 L35.831125,12.116119 C35.831125,12.8700873 36.2136753,13.2470714 36.9787759,13.2470714 C37.2999856,13.2423812 37.6191667,13.1943115 37.9279741,13.104119 C37.9975037,13.0843539 38.0721027,13.098797 38.1296723,13.1431697 C38.1872419,13.1875425 38.2211809,13.2567571 38.2214353,13.3303095 L38.2214353,14.4250714 C38.2213682,14.5674409 38.1246176,14.6908124 37.9883534,14.7222857 L37.7051034,14.7874286 C37.3787782,14.8631705 37.0453001,14.902308 36.7106207,14.9041429 C34.9255833,14.9041429 34.0332126,14.0207937 34.0335086,12.2540952 L34.0335086,5.1607619 L33.7142974,5.1607619 C33.6034691,5.1607619 33.513625,5.0692148 33.513625,4.95628571 L33.513625,3.78642857 C33.513625,3.73223962 33.5347812,3.68027669 33.5724274,3.64200178 C33.6100736,3.60372686 33.6611166,3.58228461 33.7142974,3.58240476 L34.0907802,3.58240476 L34.5858017,1.72764286 C34.6096208,1.63870779 34.6888983,1.577 34.7793707,1.577 L35.6304526,1.577 C35.7400785,1.577 35.8294273,1.66661903 35.831125,1.77830952 L35.831125,1.77830952 Z" id="路径_31"></path>
                        <path d="M42.6557629,1.57383333 L47.9926724,1.57383333 C48.1035007,1.57383333 48.1933448,1.66538044 48.1933448,1.77830952 L48.1933448,2.98661905 C48.1933448,3.09954813 48.1035007,3.19109524 47.9926724,3.19109524 L44.2726853,3.19109524 L44.2726853,7.63392857 L47.7800129,7.63392857 C47.8908412,7.63392857 47.9806853,7.72547568 47.9806853,7.83840476 L47.9806853,9.06661905 C47.9806853,9.17954813 47.8908412,9.27109524 47.7800129,9.27109524 L44.2726853,9.27109524 L44.2726853,14.5815952 C44.2726853,14.6945243 44.1828412,14.7860714 44.0720129,14.7860714 L42.6566509,14.7860714 C42.5458225,14.7860714 42.4559765,14.6945243 42.4559765,14.5815952 L42.4559765,1.77921429 C42.4557424,1.72498367 42.4766586,1.67287872 42.5141256,1.6343622 C42.5515926,1.59584569 42.6025411,1.57407276 42.6557629,1.57383333 L42.6557629,1.57383333 Z" id="路径_32"></path>
                        <path d="M49.1674052,4.00402381 C49.1668833,3.91442349 49.2237947,3.83496225 49.3076983,3.80814286 C50.1654292,3.57171695 51.0520928,3.46232542 51.9404138,3.48333333 C54.1208764,3.48333333 55.2109598,4.49018254 55.2106639,6.50388095 L55.2106639,14.5815952 C55.2106639,14.6945243 55.1208197,14.7860714 55.0099914,14.7860714 L53.6900819,14.7860714 C53.5793549,14.7858226 53.4896536,14.6944211 53.4894095,14.5815952 L53.4894095,13.9871667 C52.8970804,14.5727405 52.0940787,14.8836651 51.2695819,14.8466905 C49.5105905,14.8466905 48.6309468,13.9437381 48.6306509,12.1378333 L48.6306509,11.4904762 C48.6010852,10.8535462 48.7979701,10.2271206 49.1851638,9.72619048 C49.6647556,9.21230669 50.2840786,8.85613295 50.9636897,8.70335714 L53.4689871,8.00171429 L53.4689871,6.50116667 C53.504121,6.11306834 53.3633423,5.72987622 53.0867328,5.46069048 C52.8316006,5.24596032 52.2929224,5.13874603 51.4706983,5.13904762 C50.7769744,5.13439499 50.0865321,5.23642433 49.4226853,5.44169048 C49.3620488,5.46002356 49.296474,5.44801621 49.2458953,5.40931859 C49.1953167,5.37062098 49.1657092,5.30980455 49.1660733,5.24535714 L49.1674052,4.00402381 Z M50.4105086,11.5705476 L50.4105086,12.1550238 C50.3828319,12.5006381 50.4893155,12.8435239 50.7070776,13.11 C51.0428974,13.3610309 51.459871,13.4724662 51.873375,13.4216905 C52.4595902,13.4200362 53.0261152,13.2059676 53.4716509,12.8177619 L53.4716509,9.56333333 L51.654944,10.07 C51.2785293,10.1440056 50.9322998,10.3306391 50.6604612,10.6060714 C50.4745525,10.8904558 50.3866306,11.2297145 50.4105086,11.5705476 L50.4105086,11.5705476 Z" id="路径_33"></path>
                        <path d="M56.9607759,0.599404762 L58.3570474,0.599404762 C58.4678757,0.599404762 58.5577198,0.690951871 58.5577198,0.803880952 L58.5577198,3.95109524 C59.2468511,3.66522955 59.9842229,3.5195395 60.7282672,3.5222381 C61.3944724,3.48827146 62.0470446,3.72275606 62.5449741,4.17502381 C63.0249901,4.68189617 63.2716664,5.37233348 63.2237974,6.07502381 L63.2237974,11.9016905 C63.2767654,12.6978776 62.9911568,13.4788259 62.4397543,14.0455238 C61.8649282,14.5590265 61.1166356,14.8245955 60.3531164,14.7860714 L56.9607759,14.7860714 C56.8499475,14.7860714 56.7601034,14.6945243 56.7601034,14.5815952 L56.7601034,0.803880952 C56.7601034,0.690951871 56.8499475,0.599404762 56.9607759,0.599404762 Z M61.4070905,6.38716667 C61.4070905,5.62023016 61.0183247,5.2369127 60.2407931,5.23721411 C59.661403,5.26363929 59.0913577,5.39571346 58.5577198,5.62716667 L58.5577198,13.11 L59.9153664,13.11 C60.9098491,13.11 61.4070905,12.6425397 61.4070905,11.707619 L61.4070905,6.38716667 Z" id="路径_34"></path>
                        <path d="M72.1856853,1.52497619 C72.1805465,2.11589821 71.7071201,2.5911657 71.1271785,2.58761938 C70.547237,2.5840332 70.0794746,2.10297803 70.08133,1.51203586 C70.0831964,0.92109368 70.5539789,0.443107189 71.133931,0.443333333 C71.4252902,0.401615472 71.7188798,0.502483904 71.9259622,0.715451129 C72.1330446,0.928418354 72.2293186,1.22849253 72.1856853,1.52497619 L72.1856853,1.52497619 Z M70.4355733,3.71721378 L71.8336207,3.71721378 C71.8868785,3.71709383 71.937989,3.73859811 71.975648,3.77697097 C72.0133071,3.81534384 72.0344113,3.86742318 72.0342936,3.92169048 L72.0342936,14.5815952 C72.0342936,14.6945243 71.944449,14.7860714 71.8336207,14.7860714 L70.4373491,14.7860714 C70.3266221,14.7858226 70.2369209,14.6944211 70.2366767,14.5815952 L70.2366767,3.92169048 C70.2366767,3.8094643 70.3254391,3.71820744 70.4355733,3.71721378 L70.4355733,3.71721378 Z" id="路径_35"></path>
                        <path d="M73.5171379,6.44552381 C73.5171379,4.47103175 74.6390388,3.48363492 76.8828405,3.48333333 C77.554207,3.47515782 78.2239212,3.55297369 78.8762457,3.71495238 C78.9643581,3.73901118 79.0254592,3.82059876 79.0249741,3.91354762 L79.0249741,5.187 C79.0251713,5.24925713 78.9974606,5.30819899 78.9497247,5.34705867 C78.9019889,5.38591835 78.8394526,5.40044268 78.7799052,5.3865 C78.2247746,5.24841594 77.6553888,5.17870338 77.0839569,5.17885714 C76.6019377,5.13202125 76.1182092,5.24840869 75.7076638,5.51 C75.4259341,5.78119612 75.2815063,6.16885964 75.3156422,6.5622381 L75.3156422,11.823881 C75.2813055,12.2172877 75.4257655,12.6050376 75.7076638,12.876119 C76.127987,13.1403356 76.6217441,13.2568183 77.1132586,13.2077143 C77.6809993,13.2098865 78.2462702,13.1314745 78.7927802,12.9747381 C78.8529689,12.9580724 78.9173426,12.9710055 78.9668185,13.0097033 C79.0162944,13.0484011 79.0451948,13.108423 79.0449541,13.1719762 L79.0449541,14.4472381 C79.0450781,14.5429925 78.9802476,14.6261298 78.8886767,14.6476429 C78.2309684,14.8014997 77.5585411,14.8805465 76.8837284,14.8833333 C74.6399267,14.8833333 73.5180259,13.8959365 73.5180259,11.9211429 L73.5171379,6.44552381 Z" id="路径_36"></path>
                        <g id="组_147" transform="translate(28.413793, 3.166667)">
                            <path d="M1.76787069,1.2327381 C1.78340948,1.22233333 1.80871552,1.2042381 1.83579741,1.18478571 C1.79406466,1.2137381 1.76787069,1.2327381 1.76787069,1.2327381 Z" id="路径_37"></path>
                            <path d="M1.76787069,1.2327381 L1.76787069,0.618404762 C1.76762653,0.505578893 1.6779253,0.414177361 1.56719828,0.413928571 L0.247288793,0.413928571 C0.136460479,0.413928571 0.0466163793,0.50547568 0.0466163793,0.618404762 L0.0466163793,11.4149286 C0.0466163793,11.5278577 0.136460479,11.6194048 0.247288793,11.6194048 L1.64267241,11.6194048 C1.75339943,11.619156 1.84310067,11.5277544 1.84334483,11.4149286 L1.84334483,2.83054762 C2.41277527,2.38900737 3.09880015,2.13110568 3.81321983,2.09 L3.95972845,2.09 C4.07055676,2.09 4.16040086,1.99845289 4.16040086,1.88552381 L4.16040086,0.569547619 C4.16034016,0.51220648 4.13675655,0.457502149 4.09535418,0.418665906 C4.05395181,0.379829663 3.99850108,0.360398216 3.94241379,0.365071429 C3.18640159,0.46554064 2.46432994,0.746390576 1.83490948,1.18478571 C1.80871552,1.2042381 1.78340948,1.22142857 1.76787069,1.2327381 Z" id="路径_38"></path>
                        </g>
                        <g id="组_148" transform="translate(64.375000, 3.166667)">
                            <path d="M2.12037931,1.2327381 C2.1359181,1.22233333 2.16122414,1.2042381 2.18830603,1.18478571 C2.14657328,1.2137381 2.12037931,1.2327381 2.12037931,1.2327381 Z" id="路径_39"></path>
                            <path d="M2.12037931,1.2327381 L2.12037931,0.618404762 C2.12013515,0.505578893 2.03043392,0.414177361 1.9197069,0.413928571 L0.599797414,0.413928571 C0.4889691,0.413928571 0.399125,0.50547568 0.399125,0.618404762 L0.399125,11.4149286 C0.399125,11.5278577 0.4889691,11.6194048 0.599797414,11.6194048 L1.99784483,11.6194048 C2.10857185,11.619156 2.19827308,11.5277544 2.19851724,11.4149286 L2.19851724,2.83054762 C2.76794768,2.38900737 3.45397257,2.13110568 4.16839224,2.09 L4.31490086,2.09 C4.42572918,2.09 4.51557328,1.99845289 4.51557328,1.88552381 L4.51557328,0.569547619 C4.51551257,0.51220648 4.49192896,0.457502149 4.45052659,0.418665906 C4.40912422,0.379829663 4.35367349,0.360398216 4.29758621,0.365071429 C3.541574,0.46554064 2.81950235,0.746390576 2.1900819,1.18478571 C2.16122414,1.2042381 2.1359181,1.22142857 2.12037931,1.2327381 Z" id="路径_40"></path>
                        </g>
                    </g>
                </g>
                <g id="组_152" transform="translate(107.000000, 6.000000)">
                    <g id="组_151">
                        <path d="M4.91428571,5.98114286 C4.5347449,5.65114286 3.8520102,5.20971429 3.28555102,4.81628571 C2.74604838,5.73853923 1.91983111,6.46898496 0.926693878,6.90171429 C0.87148501,6.9281719 0.80476123,6.91101175 0.77005102,6.86142857 C0.668909701,6.71616941 0.554823037,6.57992512 0.429122449,6.45428571 C0.402629744,6.42695568 0.39152657,6.38868193 0.399402996,6.3518398 C0.407279422,6.31499766 0.433135965,6.28426224 0.468612245,6.26957143 C1.97229592,5.59542857 2.57473469,4.749 2.82132653,3.96257143 L0.531357143,3.96257143 C0.499744567,3.96257164 0.469433125,3.95027638 0.447120863,3.92840259 C0.4248086,3.9065288 0.412332328,3.87687719 0.41244898,3.846 L0.41244898,3.36771429 C0.41244898,3.30357036 0.465685978,3.25157143 0.531357143,3.25157143 L2.95559184,3.25157143 C2.97540287,3.08430437 2.98361206,2.91592034 2.98016327,2.74757143 L2.98016327,1.97185714 L1.87971429,1.97185714 C1.67568203,2.35932948 1.43506695,2.72735433 1.161,3.07114286 C1.12047122,3.1205057 1.04670157,3.12855429 0.996020408,3.08914286 C0.855125201,2.98322265 0.70706724,2.88671736 0.552857143,2.80028571 C0.522177638,2.78361489 0.501021907,2.75412024 0.495458558,2.72026243 C0.489895208,2.68640462 0.500539006,2.65192504 0.524336735,2.62671429 C1.10441032,1.92529535 1.53388412,1.11693206 1.78713265,0.249857143 C1.80475393,0.192535882 1.86462151,0.158160619 1.92446939,0.171 L2.42511224,0.276857143 C2.45755949,0.284222755 2.48542345,0.304407815 2.50205821,0.332597929 C2.51869297,0.360788043 2.52260721,0.394455951 2.51286735,0.425571429 C2.42514177,0.708935371 2.32262674,0.987728554 2.20572449,1.26085714 L5.00423469,1.26085714 C5.03584705,1.2607432 5.06620466,1.27292933 5.08859925,1.2947227 C5.11099385,1.31651608 5.12358185,1.3461226 5.12358163,1.377 L5.12358163,1.85528571 C5.12358163,1.91966634 5.07014819,1.97185714 5.00423469,1.97185714 L3.74670408,1.97185714 L3.74670408,2.76042857 C3.75014629,2.9245008 3.74193613,3.0886087 3.72213265,3.25157143 L5.30962245,3.25157143 C5.34123481,3.25145749 5.37159241,3.26364362 5.39398701,3.28543699 C5.4163816,3.30723036 5.4289696,3.33683689 5.42896939,3.36771429 L5.42896939,3.846 C5.42896939,3.91038062 5.37553594,3.96257143 5.30962245,3.96257143 L3.612,3.96257143 C3.58786735,4.05342857 3.5510102,4.14385714 3.5242449,4.23428571 C3.95907143,4.49142857 5.00511224,5.08671429 5.44564286,5.385 C5.47381988,5.40433596 5.49203098,5.43465358 5.49556581,5.46811109 C5.49910063,5.5015686 5.48761197,5.53487978 5.46407143,5.55942857 L5.07312245,5.97257143 C5.03077445,6.01589192 4.96126182,6.01964308 4.91428571,5.98114286 L4.91428571,5.98114286 Z" id="路径_41"></path>
                        <path d="M2.21011224,6.37585714 L2.21011224,11.8371429 C2.21011224,11.8680203 2.22270003,11.8976268 2.24509463,11.9194202 C2.26748922,11.9412135 2.29784682,11.9533997 2.32945918,11.9532865 L3.00473469,11.9532865 L3.00473469,11.475 L7.81327551,11.475 L7.81327551,11.9142857 L8.51531633,11.9142857 C8.54692869,11.9143997 8.57728629,11.9022135 8.59968088,11.8804202 C8.62207548,11.8586268 8.63466327,11.8290203 8.63466327,11.7981429 L8.63466327,6.37585714 C8.63466327,6.31147652 8.58122982,6.25928571 8.51531633,6.25928571 L2.32945918,6.25928571 C2.29780641,6.25928571 2.26745005,6.27156731 2.24506815,6.2934287 C2.22268626,6.31529008 2.21011224,6.34494048 2.21011224,6.37585714 Z M7.72376531,10.7507143 L3.0942449,10.7507143 C3.04577909,10.7507143 3.0064898,10.7123387 3.0064898,10.665 L3.0064898,9.36385714 C3.0064898,9.31651845 3.04577909,9.27814286 3.0942449,9.27814286 L7.72244898,9.27814286 C7.77091478,9.27814286 7.81020408,9.31651845 7.81020408,9.36385714 L7.81020408,10.665 C7.81020408,10.7123387 7.77091478,10.7507143 7.72244898,10.7507143 L7.72376531,10.7507143 Z M7.72376531,8.58942857 L3.0942449,8.58942857 C3.04577909,8.58942857 3.0064898,8.55105298 3.0064898,8.50371429 L3.0064898,7.07228571 C3.0064898,7.02494702 3.04577909,6.98657143 3.0942449,6.98657143 L7.72244898,6.98657143 C7.74572308,6.98657143 7.76804393,6.99560201 7.78450121,7.01167656 C7.80095848,7.02775111 7.81020408,7.04955287 7.81020408,7.07228571 L7.81020408,8.50371429 C7.81020408,8.55105298 7.77091478,8.58942857 7.72244898,8.58942857 L7.72376531,8.58942857 Z" id="路径_42"></path>
                        <path d="M6.03096939,1.36371429 L6.03096939,5.52728571 C6.03096939,5.55816311 6.04355717,5.58776964 6.06595177,5.60956301 C6.08834636,5.63135638 6.11870397,5.64354251 6.15031633,5.64342936 L9.47623469,5.64342936 C9.50784705,5.64354251 9.53820466,5.63135638 9.56059925,5.60956301 C9.58299385,5.58776964 9.59558163,5.55816311 9.59558163,5.52728571 L9.59558163,1.36371429 C9.59558163,1.29933366 9.54214819,1.24714286 9.47623469,1.24714286 L6.15031633,1.24714286 C6.08440283,1.24714286 6.03096939,1.29933366 6.03096939,1.36371429 Z M8.7110102,4.85528571 L6.88877551,4.85528571 C6.84030971,4.85528571 6.80102041,4.81691012 6.80102041,4.76957143 L6.80102041,2.11242857 C6.80102041,2.06508988 6.84030971,2.02671429 6.88877551,2.02671429 L8.7092551,2.02671429 C8.7325292,2.02671429 8.75485006,2.03574487 8.77130733,2.05181942 C8.7877646,2.06789397 8.79701021,2.08969573 8.79701021,2.11242857 L8.79701021,4.76957143 C8.79701021,4.81624865 8.75878923,4.85435217 8.7110102,4.85528571 L8.7110102,4.85528571 Z" id="路径_43"></path>
                    </g>
                    <path d="M15.1544286,2.34214286 C14.7834601,3.20293895 14.3618239,4.04205475 13.8916327,4.85528571 L15.9380816,4.85528571 L15.9350102,3.02914286 C15.9348936,2.99826567 15.9473698,2.96861406 15.9696821,2.94674027 C15.9919943,2.92486648 16.0223058,2.91257122 16.0539184,2.91257143 L16.6348571,2.91257143 C16.7007706,2.91257143 16.7542041,2.96476223 16.7542041,3.02914286 L16.7572755,4.85528571 L19.6167755,4.85528571 C19.6483879,4.85517178 19.6787455,4.8673579 19.7011401,4.88915127 C19.7235347,4.91094465 19.7361227,4.94055117 19.7361224,4.97142857 L19.733051,9.58757143 C19.733051,10.0787143 19.6084388,10.2814286 19.267949,10.4532857 C18.7721681,10.5836751 18.25756,10.632201 17.745398,10.5968571 C17.6959677,10.596487 17.6527942,10.5641161 17.6396531,10.5175714 C17.6032347,10.3984286 17.5299592,10.1678571 17.4558061,9.984 C17.4410445,9.94752785 17.4462012,9.90623487 17.4695058,9.87429792 C17.4928104,9.84236097 17.5310907,9.82412737 17.5712041,9.82585714 C18.2416531,9.84385714 18.4658673,9.83314286 18.6562959,9.83314286 C18.8524286,9.82028571 18.9134184,9.76842857 18.9134184,9.576 L18.9164898,5.78185714 C18.9164903,5.72782127 18.8717709,5.68395025 18.816449,5.68371429 L16.8577551,5.68371429 C16.8023616,5.68394902 16.7575158,5.72775187 16.7572755,5.78185714 L16.7542041,11.7994286 C16.7542043,11.830306 16.7416163,11.8599125 16.7192217,11.8817059 C16.6968271,11.9034992 16.6664695,11.9155722 16.6348571,11.9155722 L16.0539184,11.9155722 C15.9882472,11.9155722 15.9350102,11.8635725 15.9350102,11.7994286 L15.9380816,5.78185714 C15.9380816,5.72765434 15.8930954,5.68371429 15.837602,5.68371429 L13.8100204,5.68371429 C13.7546269,5.68394902 13.7097811,5.72775187 13.7095408,5.78185714 L13.7064694,10.6225714 C13.7064694,10.6869521 13.6530359,10.7391429 13.5871224,10.7391429 L13.0167143,10.7391429 C12.9508008,10.7391429 12.8973673,10.6869521 12.8973673,10.6225714 L12.8973673,6.39514286 C12.4976995,6.93124044 12.0280381,7.41404027 11.5003061,7.83128571 C11.4731578,7.85109742 11.4387738,7.85893852 11.4054505,7.85291707 C11.3721272,7.84689562 11.3428909,7.8275585 11.3247959,7.79957143 C11.2184264,7.62495065 11.1030253,7.45573169 10.9790408,7.29257143 C10.9409888,7.2423368 10.950069,7.17176212 10.9996633,7.13228571 C12.2027857,6.045 13.4598776,4.03971429 14.2496735,2.34342857 L11.4687143,2.34342857 C11.4371019,2.34354251 11.4067443,2.33135638 11.3843497,2.30956301 C11.3619551,2.28776964 11.3493671,2.25816311 11.3493673,2.22728571 L11.3493673,1.63242857 C11.3493673,1.56804795 11.4028008,1.51585714 11.4687143,1.51585714 L14.6164898,1.51585714 C14.7481224,1.18071429 14.8911633,0.658714286 15.0043673,0.259714286 C15.0209088,0.198636174 15.0846987,0.161940384 15.1474082,0.177428571 L15.7564286,0.327 C15.7885706,0.334400674 15.8161809,0.354389144 15.8327789,0.382273832 C15.8493769,0.410158519 15.8535012,0.443484094 15.8441837,0.474428571 C15.7450204,0.796714286 15.6006633,1.27971429 15.5107143,1.51585714 L20.1718265,1.51585714 C20.23774,1.51585714 20.2911735,1.56804795 20.2911735,1.63242857 L20.2911735,2.22728571 C20.2911735,2.25816311 20.2785857,2.28776964 20.2561911,2.30956301 C20.2337965,2.33135638 20.2034389,2.34354251 20.1718265,2.34342857 L15.1544286,2.34214286 Z" id="路径_44"></path>
                    <path d="M31.0846122,10.5831429 L31.0846122,11.1904286 C31.0846122,11.2548092 31.0311788,11.307 30.9652653,11.307 L21.6877959,11.307 C21.6561833,11.307 21.6258719,11.294705 21.6035596,11.2728312 C21.5812474,11.2509574 21.5687711,11.2213058 21.5688869,11.1904286 L21.5688869,10.5831429 C21.5687711,10.5522657 21.5812474,10.5226141 21.6035596,10.5007403 C21.6258719,10.4788665 21.6561833,10.4665712 21.6877959,10.4665714 L28.0250306,10.4665714 C28.1233163,9.80742857 28.2330102,9.05742857 28.3321735,8.30785714 L22.9040816,8.30785714 C22.8681289,8.30856591 22.8338345,8.29310781 22.8110585,8.2659272 C22.7882826,8.2387466 22.7795485,8.20285492 22.7873673,8.16857143 C23.1870918,6.45985714 23.7052857,3.68614286 24.0264694,1.62257143 L22.0914694,1.62257143 C22.0255559,1.62257143 21.9721224,1.57038062 21.9721224,1.506 L21.9721224,0.911571429 C21.9721224,0.847190806 22.0255559,0.795 22.0914694,0.795 L30.598449,0.795 C30.6643625,0.795 30.7177959,0.847190806 30.7177959,0.911571429 L30.7177959,1.506 C30.7177959,1.57038062 30.6643625,1.62257143 30.598449,1.62257143 L24.8943673,1.62257143 C24.7842347,2.29542857 24.6499694,3.01928571 24.5157041,3.76928571 L29.5326633,3.76928571 C29.5659438,3.76855525 29.5979711,3.78168821 29.6207443,3.80540385 C29.6435176,3.8291195 29.6548862,3.86117821 29.6520102,3.89357143 C29.4883469,5.63528571 29.1548776,8.38371429 28.8560714,10.4665714 L30.9648265,10.4665714 C30.9965553,10.4664575 31.0270245,10.4786888 31.0495013,10.5005625 C31.0719782,10.5224363 31.0846122,10.5521518 31.0846122,10.5831429 L31.0846122,10.5831429 Z M28.440551,7.39157143 C28.5528776,6.41957143 28.6643265,5.47414286 28.7476939,4.70657143 C28.7508309,4.67479617 28.7399189,4.64322568 28.7177057,4.61980966 C28.6954924,4.59639363 28.6640946,4.58336337 28.6314184,4.58397772 L24.4683163,4.58397772 C24.4117426,4.58403155 24.3634028,4.62383021 24.3537959,4.67828571 C24.1848673,5.62714286 24.0062857,6.561 23.8470102,7.36028571 C23.8405279,7.39338206 23.8496663,7.42756914 23.8718856,7.45334614 C23.8941049,7.47912315 23.9270373,7.49374304 23.9615306,7.49316064 L28.3264694,7.49316064 C28.3852626,7.49218883 28.4341485,7.44866385 28.440551,7.39157143 L28.440551,7.39157143 Z" id="路径_45"></path>
                    <path d="M35.4969388,9.18685714 L35.4969388,11.7981429 C35.496939,11.8290203 35.484351,11.8586268 35.4619564,11.8804202 C35.4395618,11.9022135 35.4092042,11.9142865 35.3775918,11.9142865 L34.9072245,11.9142865 C34.8756121,11.9142865 34.8452545,11.9022135 34.8228599,11.8804202 C34.8004653,11.8586268 34.7878773,11.8290203 34.7878776,11.7981429 L34.7878776,9.31585714 L31.6874898,9.88928571 C31.6235132,9.90113351 31.5616221,9.86070522 31.548398,9.79842857 L31.4259796,9.21642857 C31.4193487,9.18506821 31.4262175,9.15242446 31.4449737,9.12616044 C31.4637299,9.09989641 31.4927215,9.08232513 31.5251429,9.07757143 L32.1955918,8.97942857 L32.1955918,1.35085714 L31.6181633,1.35085714 C31.5522498,1.35085714 31.4988163,1.29866634 31.4988163,1.23428571 L31.4988163,0.677142857 C31.4988161,0.646265458 31.5114041,0.616658933 31.5337987,0.59486556 C31.5561933,0.573072188 31.5865509,0.560999208 31.6181633,0.560999208 L35.9278163,0.560999208 C35.9594287,0.560999208 35.9897863,0.573072188 36.0121809,0.59486556 C36.0345755,0.616658933 36.0471635,0.646265458 36.0471633,0.677142857 L36.0471633,1.34957143 L35.4969388,1.34957143 L35.4969388,8.421 L36.3459694,8.286 C36.3791427,8.28073041 36.4130497,8.28941897 36.4393022,8.3099162 C36.4655547,8.33041343 36.4817004,8.36080471 36.4837449,8.39357143 L36.5175306,8.89885714 C36.5216004,8.95799307 36.4794292,9.01063556 36.4196837,9.021 L35.4969388,9.18685714 Z M32.9296633,1.44557143 L32.9296633,3.15728571 C32.9295459,3.1823268 32.9396784,3.20637538 32.9578069,3.22408229 C32.9759354,3.2417892 33.0005566,3.25168603 33.0261939,3.25157241 L34.6935408,3.25157241 C34.7191781,3.25168603 34.7437993,3.2417892 34.7619278,3.22408229 C34.7800563,3.20637538 34.7901888,3.1823268 34.7900724,3.15728571 L34.7900724,1.44557143 C34.7901888,1.42053034 34.7800563,1.39648176 34.7619278,1.37877485 C34.7437993,1.36106795 34.7191781,1.35117111 34.6935408,1.35127688 L33.0261939,1.35127688 C33.0004052,1.35094035 32.9755569,1.36073522 32.9572375,1.37846739 C32.9389181,1.39619957 32.9286655,1.42038037 32.9287847,1.44557143 L32.9296633,1.44557143 Z M33.0261939,5.91514286 L34.6935408,5.91514286 C34.7468532,5.91514286 34.7900724,5.8729297 34.7900724,5.82085714 L34.7900724,4.08342857 C34.7901888,4.05838749 34.7800563,4.0343389 34.7619278,4.01663199 C34.7437993,3.99892509 34.7191781,3.98902825 34.6935408,3.98914187 L33.0261939,3.98914187 C33.0005566,3.98902825 32.9759354,3.99892509 32.9578069,4.01663199 C32.9396784,4.0343389 32.9295459,4.05838749 32.9296623,4.08342857 L32.9296623,5.82085714 C32.9301396,5.87226238 32.9726872,5.91382048 33.0253163,5.91428571 L33.0261939,5.91514286 Z M33.041551,8.84314286 C33.5615,8.75057143 34.128398,8.65842857 34.7067041,8.56585714 C34.7534525,8.55849916 34.7878349,8.51910743 34.7878785,8.47285714 L34.7878785,6.747 C34.7879943,6.7219197 34.7778757,6.69782751 34.75976,6.68005271 C34.7416443,6.66227791 34.7170247,6.65228571 34.6913469,6.65228571 L33.024,6.65228571 C32.9983223,6.65228571 32.9737026,6.66227791 32.9555869,6.68005271 C32.9374713,6.69782751 32.9273527,6.7219197 32.9274694,6.747 L32.9274694,8.75014286 C32.9268415,8.77804958 32.9391393,8.80474309 32.9609392,8.82279221 C32.9827392,8.84084133 33.0117134,8.84831875 33.0397959,8.84314286 L33.041551,8.84314286 Z M39.4476735,6.40028571 C39.9693776,8.319 41.0088367,10.2145714 42.4989184,10.9911429 C42.5311077,11.0067732 42.5539584,11.0362109 42.5606767,11.0707039 C42.567395,11.1051969 42.5572075,11.1407737 42.5331429,11.1668571 C42.3897235,11.3203701 42.2633805,11.4883097 42.1562347,11.6678571 C42.1400991,11.695065 42.1135368,11.7148783 42.0824159,11.7229199 C42.051295,11.7309615 42.0181767,11.7265695 41.9903776,11.7107143 C40.7016939,10.9624286 39.7477959,9.34114286 39.1172755,7.707 C38.6706682,9.32116043 37.717643,10.7581436 36.3920408,11.8161429 C36.338113,11.8556565 36.2616921,11.8455385 36.2204796,11.7934286 C36.0946177,11.639934 35.9536847,11.4988335 35.7996939,11.3721429 C35.772646,11.3487628 35.7580988,11.3145387 35.7602398,11.2793221 C35.7623809,11.2441054 35.7809726,11.2118034 35.8106633,11.1917143 C37.3701979,10.0358567 38.3721286,8.30251396 38.5797755,6.40114286 L36.2160918,6.40114286 C36.1504207,6.40114286 36.0971837,6.34914393 36.0971837,6.285 L36.0971837,5.71585714 C36.097067,5.68497995 36.1095433,5.65532834 36.1318556,5.63345455 C36.1541678,5.61158076 36.1844793,5.5992855 36.2160918,5.59928571 L38.6526122,5.59928571 C38.6771837,5.27657143 38.6771837,3.48514286 38.6771837,3.48514286 L36.532449,3.48514286 C36.4667778,3.48514286 36.4135408,3.43314393 36.4135408,3.369 L36.4135408,2.80028571 C36.4135408,2.73614179 36.4667778,2.68414286 36.532449,2.68414286 L39.4722449,2.68414286 C39.9770456,1.933415 40.4173258,1.14314271 40.7885714,0.321428571 C40.8127295,0.267339494 40.8752733,0.240333557 40.9324898,0.259285714 L41.5134286,0.442714286 C41.5470817,0.452781612 41.5743793,0.476993071 41.5878741,0.508743416 C41.6013688,0.54049376 41.5996527,0.57646995 41.5831939,0.606857143 C41.2036531,1.30242857 40.7451327,2.08542857 40.3405816,2.68414286 L42.0518061,2.68414286 L42.0518061,3.48514286 L39.4959388,3.48514286 C39.4959388,3.48514286 39.4959388,5.27657143 39.4718061,5.59928571 L42.3971224,5.59928571 C42.4630359,5.59928571 42.5164694,5.65147652 42.5164694,5.71585714 L42.5164694,6.285 C42.5164696,6.3158774 42.5038816,6.34548392 42.481487,6.3672773 C42.4590924,6.38907067 42.4287348,6.4012568 42.3971224,6.40114286 L39.4476735,6.40028571 Z M38.004102,2.44757143 C37.7140736,1.81352731 37.3529479,1.21285584 36.9273469,0.656571429 C36.9062097,0.629641613 36.8983995,0.594937624 36.9060255,0.56183211 C36.9136516,0.528726595 36.9359274,0.500634532 36.9668367,0.485142857 L37.4034184,0.258428571 C37.4537615,0.231816647 37.5163592,0.243865211 37.552602,0.287142857 C38.0085225,0.840153246 38.3968311,1.44323 38.7096531,2.08414286 C38.7337371,2.13870981 38.7110522,2.20220254 38.6574388,2.23028571 L38.1708367,2.50114286 C38.1417841,2.51860404 38.1063468,2.52272345 38.0739099,2.51241012 C38.041473,2.5020968 38.0153089,2.47839119 38.0023469,2.44757143 L38.004102,2.44757143 Z" id="路径_46"></path>
                </g>
            </g>
        </g>
    </g>
</svg>